<svg xmlns="http://www.w3.org/2000/svg" xmlns:xlink="http://www.w3.org/1999/xlink" width="1080" height="500" viewBox="140 280 800 500">
  <defs>
    <linearGradient id="linear-gradient" x1="0.5" x2="0.5" y2="1" gradientUnits="objectBoundingBox">
      <stop offset="0" stop-color="#ffa7e0"/>
      <stop offset="1" stop-color="#fc64c6"/>
    </linearGradient>
    <linearGradient id="linear-gradient-2" x1="0.5" x2="0.5" y2="1" gradientUnits="objectBoundingBox">
      <stop offset="0" stop-color="#fff"/>
      <stop offset="1" stop-color="#fff" stop-opacity="0"/>
    </linearGradient>
    <clipPath id="clip-Logo_Slogan_Hori">
      <rect width="1080" height="1080"/>
    </clipPath>
  </defs>
  <g id="Logo_Slogan_Hori" data-name="Logo Slogan Hori" clip-path="url(#clip-Logo_Slogan_Hori)">
    <g id="Logo_Slogan_Hori-2" data-name="Logo Slogan Hori" transform="translate(33 435.5)">
      <g id="Group_7" data-name="Group 7" transform="translate(-0.121 0)">
        <path id="Union_2" data-name="Union 2" d="M107.574,154.252a47.84,47.84,0,0,1-33.807-13.9,47.292,47.292,0,0,1-12.5-21.7H41.912a5.934,5.934,0,1,1,0-11.866H66.126a6,6,0,0,1,6.049,5.718c2.623,17.052,17.8,29.878,35.4,29.878h83.669a35.768,35.768,0,0,0,35.858-35.6V47.462a35.769,35.769,0,0,0-35.858-35.6H5.976A5.933,5.933,0,1,1,5.976,0H191.243A47.836,47.836,0,0,1,225.05,13.9a47.138,47.138,0,0,1,14,33.56V106.79a47.138,47.138,0,0,1-14,33.561,47.84,47.84,0,0,1-33.806,13.9Zm-101.6-35.6a5.933,5.933,0,1,1,0-11.866H17.929a5.933,5.933,0,1,1,0,11.866Zm23.906-35.6a5.933,5.933,0,1,1,0-11.866H71.717a5.933,5.933,0,1,1,0,11.866Zm-11.953-35.6a5.933,5.933,0,1,1,0-11.865H77.693a5.933,5.933,0,1,1,0,11.865Z" transform="translate(24.898 27.687)" fill="#fff"/>
        <rect id="Rectangle_48" data-name="Rectangle 48" width="342" height="209" transform="translate(0.121 0)" fill="none"/>
        <path id="Path_7" data-name="Path 7" d="M32.564,3.3a5.913,5.913,0,0,1,10.613,0l31.93,64.329A5.975,5.975,0,0,1,69.8,76.282H5.94A5.975,5.975,0,0,1,.634,67.633Z" transform="translate(214.731 66.943) rotate(90)" fill="url(#linear-gradient)"/>
        <path id="Path_8" data-name="Path 8" d="M-133.678-49.163V14.7A5.979,5.979,0,0,0-125.029,20L-93.292,4.253l-36.927-58.8A5.9,5.9,0,0,0-133.678-49.163Z" transform="translate(272.122 122.048)" opacity="0.5" fill="url(#linear-gradient-2)"/>
      </g>
      <path id="Path_36" data-name="Path 36" d="M-341.02-23.8h-15.47C-354.025-11.39-343.91.085-329.97.085c13.175,0,29.495-5.1,29.495-20.91,0-12.07-9.435-19.21-18.36-21.335-6.885-1.7-21.59-2.38-21.59-10.8,0-6.29,8.33-6.8,13.09-6.8,6.545,0,10.54,4.335,12.155,8.84h15.555c-4.505-17.6-12.24-23.12-30.175-23.12-12.75.17-26.1,8.16-26.1,21.165,0,7.31,4.25,13.94,10.03,17.765.85.51,1.615.935,2.38,1.36h-.085c6.29,3.315,13.345,3.23,19.3,4.845,4.165,1.1,8.245,3.145,8.245,7.31,0,6.715-7.9,7.4-13.005,7.4C-335.92-14.195-339.66-19.125-341.02-23.8ZM-268.685.085v-13.43h-6.29a2.841,2.841,0,0,1-2.635-2.975V-39.61h6.715V-53.125h-6.715v-7.31h-14.535V-16.32a16.483,16.483,0,0,0,1.36,6.12A16.534,16.534,0,0,0-274.975.085Zm9.52-.085h14.535V-29.5c0-5.95,4.42-10.625,10.115-10.625h6.29V-53.55h-6.29a21.678,21.678,0,0,0-10.115,2.3V-53.04h-14.535Zm75.82-17.935c-2.975,2.8-6.545,4.5-9.945,4.5-5.355,0-8.67-2.635-10.965-6.545h38.42V-26.69c0-15.3-12.92-26.69-27.455-26.69-14.45,0-27.54,11.475-27.54,26.69,0,15.13,13.09,26.605,27.54,26.605,10.285,0,22.865-6.63,26.605-17.85ZM-204.17-33.49c2.21-3.825,5.61-6.46,10.88-6.46s8.585,2.635,10.88,6.46ZM-117.9-.085h14.62v-52.87H-117.9v2.55A26.568,26.568,0,0,0-130.73-53.55c-14.535,0-27.625,11.56-27.625,26.69,0,15.215,13.09,26.69,27.625,26.69A27.816,27.816,0,0,0-117.9-3.315ZM-143.65-26.86a13.045,13.045,0,0,1,12.92-13.26A13.083,13.083,0,0,1-117.9-26.86,13.139,13.139,0,0,1-130.73-13.6,13.045,13.045,0,0,1-143.65-26.86ZM-91.29,0h14.62V-29.5c0-5.78,4.42-10.625,10.03-10.625A10.381,10.381,0,0,1-56.44-29.5V0h14.62V-29.5A10.366,10.366,0,0,1-31.705-40.12,10.366,10.366,0,0,1-21.59-29.5V0H-6.97V-29.5c0-13.77-11.645-24.055-24.735-24.055-7.65,0-12.41,2.465-17.34,7.055A24.8,24.8,0,0,0-66.64-53.55a23.784,23.784,0,0,0-10.03,2.125V-53.38H-91.29ZM65.11-24.31C60.35-14.79,50.575-8.33,39.95-8.33,24.735-8.33,11.9-21.165,11.9-36.89S24.565-65.62,39.95-65.62c10.625,0,20.4,6.545,25.16,16.235H75.395A38.417,38.417,0,0,0,39.95-74.035c-20.06,0-37.655,16.4-37.655,37.145,0,20.825,17.68,36.8,37.655,36.8A38.148,38.148,0,0,0,75.395-24.31ZM85.255-.085H94.52V-30.94c0-9.1,7.055-16.66,16.065-16.66a16.366,16.366,0,0,1,16.15,16.66V-.085H136V-30.94c0-13.94-11.985-24.48-25.415-24.48A23.927,23.927,0,0,0,97.24-51.6l-2.72,1.7V-74.12H85.255ZM193.8-.17h9.265V-54.91H193.8v6.63l-2.8-2.125A28,28,0,0,0,174.42-55.59c-15.13,0-28.73,11.9-28.73,27.71,0,15.725,13.6,27.625,28.73,27.625A28,28,0,0,0,190.995-5.44l2.8-2.04ZM154.955-27.88A19.665,19.665,0,0,1,174.42-47.77c10.625,0,19.38,8.925,19.38,19.89,0,10.88-8.84,19.805-19.38,19.805A19.592,19.592,0,0,1,154.955-27.88Zm57.46,12.665C213.69-2.55,223.8,1.275,232.73,1.275c11.135,0,21.165-5.95,21.165-15.81,0-8.245-6.97-13.685-14.28-15.385-5.61-1.275-18.19-1.87-18.19-9.775,0-5.185,5.44-7.735,11.985-7.735,4.25,0,10.37,1.105,11.475,8.5l9.35-.17c-1.19-12.24-12.24-16.235-21.08-16.235-10.71,0-21,5.78-21,15.47,0,8.16,7.31,13.685,14.11,15.385,6.12,1.445,18.445,1.445,18.445,9.6,0,5.355-5.27,8.33-12.07,8.33-4.25,0-10.2-1.19-11.475-8.67ZM271.15-23.8H319v-3.91c0-15.895-13.43-27.71-28.645-27.71-15.045,0-28.645,11.9-28.645,27.71,0,15.725,13.6,27.625,28.645,27.625,11.135,0,19.04-5.95,25.245-14.96H305.83a21.1,21.1,0,0,1-15.47,7.14A19.548,19.548,0,0,1,272-21.5Zm0-7.905L272-34a19.772,19.772,0,0,1,18.36-13.6A19.872,19.872,0,0,1,308.89-34l.765,2.3ZM328.7,0h9.18V-31.11c0-9.265,7.055-16.66,16.15-16.66h3.4v-7.82h-3.4a24.008,24.008,0,0,0-13.43,3.825l-2.72,1.7V-55H328.7Z" transform="translate(647 124)" fill="#fff"/>
      <path id="Path_35" data-name="Path 35" d="M-239.647-26.638c-4.826,0-8.246,2.812-8.246,6.84,0,4.066,2.66,6,7.752,7.562,4.446,1.368,5.662,2.508,5.662,5.054,0,3.154-2.546,4.674-5.624,4.674a9.305,9.305,0,0,1-6.764-2.736l-2.09,2.318A12.244,12.244,0,0,0-240.065.456c5.89,0,9.348-3.192,9.348-7.752,0-5.016-3.572-6.65-7.752-7.942-4.712-1.444-5.738-2.508-5.738-4.712,0-2.508,2.09-3.724,4.712-3.724a8.419,8.419,0,0,1,5.89,2.356l2.052-2.28A11.041,11.041,0,0,0-239.647-26.638ZM-215.479-.912l-1.33-2.394a4.893,4.893,0,0,1-2.66.874c-1.748,0-2.394-.95-2.394-2.964V-17.328h4.37l.38-2.7h-4.75v-4.94l-3.5.418v4.522h-3.5v2.7h3.5V-5.244c0,3.724,2.014,5.7,5.4,5.7A7.634,7.634,0,0,0-215.479-.912Zm10.754-19.57c-5.7,0-8.968,4.294-8.968,10.488,0,6.346,3.23,10.45,8.93,10.45,5.662,0,8.93-4.294,8.93-10.488C-195.833-16.378-199.025-20.482-204.725-20.482Zm0,2.812c3.306,0,5.13,2.432,5.13,7.638,0,5.244-1.824,7.676-5.168,7.676s-5.168-2.432-5.168-7.638C-209.931-15.238-208.069-17.67-204.725-17.67Zm23.864-2.812a7.279,7.279,0,0,0-5.928,3.154l-.266-2.7h-3V8.094l3.5-.418v-9.5a6.463,6.463,0,0,0,5.244,2.28c5.168,0,7.866-4.408,7.866-10.488C-173.451-16.34-175.541-20.482-180.861-20.482Zm-1.292,18.088a5.156,5.156,0,0,1-4.408-2.432v-9.766c1.064-1.6,2.7-3.116,4.826-3.116,3,0,4.522,2.47,4.522,7.676C-177.213-4.788-178.961-2.394-182.153-2.394Zm29.488-2.09V-26.3h-5.586V0h15.39l.608-4.484Zm22.116-16.264c-6.08,0-9.69,4.256-9.69,10.678,0,6.688,3.648,10.678,9.652,10.678,6.042,0,9.652-4.294,9.652-10.678C-120.935-16.758-124.545-20.748-130.549-20.748Zm0,4.028c2.622,0,3.99,2.014,3.99,6.65,0,4.6-1.368,6.65-4.028,6.65s-4.028-2.014-4.028-6.65C-134.615-14.668-133.247-16.72-130.549-16.72Zm22.192-4.028c-6.08,0-9.69,4.256-9.69,10.678,0,6.688,3.648,10.678,9.652,10.678,6.042,0,9.652-4.294,9.652-10.678C-98.743-16.758-102.353-20.748-108.357-20.748Zm0,4.028c2.622,0,3.99,2.014,3.99,6.65,0,4.6-1.368,6.65-4.028,6.65s-4.028-2.014-4.028-6.65C-112.423-14.668-111.055-16.72-108.357-16.72ZM-89.243,0V-28.766l-5.4.608V0Zm5.814-11.286,6.422-8.854h-5.586l-6.46,9.12L-82.555,0h6.118Zm12.046-19.228a3.106,3.106,0,0,0-3.268,3.154,3.106,3.106,0,0,0,3.268,3.154,3.138,3.138,0,0,0,3.306-3.154A3.138,3.138,0,0,0-71.383-30.514ZM-68.647,0V-20.14h-5.4V0Zm16.568-20.748a7.583,7.583,0,0,0-6.156,3.154l-.418-2.546h-4.674V0h5.4V-13.908c1.1-1.786,2.318-2.812,3.876-2.812,1.368,0,2.2.646,2.2,2.964V0h5.4V-14.668C-46.455-18.468-48.545-20.748-52.079-20.748Zm28.766,1.71-1.33-4.142a15.994,15.994,0,0,1-9.424,2.432c-5.054,0-8.588,2.85-8.588,7.3a6.009,6.009,0,0,0,3.572,5.738,4.632,4.632,0,0,0-2.356,3.762C-41.439-1.824-39.691,0-35.473,0h2.964c2.128,0,3.154.836,3.154,2.2,0,1.444-.988,2.47-4.712,2.47-3.838,0-4.674-.836-4.674-2.736h-4.826c0,4.028,2.014,6.422,9.386,6.422,6.726,0,10.26-2.47,10.26-6.536,0-3.344-2.926-5.776-7.486-5.776h-3.078c-1.976,0-2.318-.646-2.318-1.33a1.632,1.632,0,0,1,.76-1.33,9.126,9.126,0,0,0,2.356.266c5.13,0,8.284-2.85,8.284-6.764,0-2.546-1.254-4.066-3.724-5.168A16.576,16.576,0,0,0-23.313-19.038Zm-10.64,1.9c2.242,0,3.344,1.14,3.344,3.534,0,2.47-1.14,3.762-3.306,3.762-2.052,0-3.344-1.368-3.344-3.686C-37.259-15.732-36.005-17.138-33.953-17.138ZM-18.791-4.826A2.6,2.6,0,0,0-21.413-2.2,2.612,2.612,0,0,0-18.791.456a2.62,2.62,0,0,0,2.66-2.66A2.612,2.612,0,0,0-18.791-4.826ZM6.137-26.638c-4.826,0-8.246,2.812-8.246,6.84,0,4.066,2.66,6,7.752,7.562C10.089-10.868,11.3-9.728,11.3-7.182c0,3.154-2.546,4.674-5.624,4.674A9.305,9.305,0,0,1-1.083-5.244l-2.09,2.318A12.244,12.244,0,0,0,5.719.456c5.89,0,9.348-3.192,9.348-7.752,0-5.016-3.572-6.65-7.752-7.942C2.6-16.682,1.577-17.746,1.577-19.95c0-2.508,2.09-3.724,4.712-3.724a8.419,8.419,0,0,1,5.89,2.356l2.052-2.28A11.041,11.041,0,0,0,6.137-26.638ZM30.3-.912l-1.33-2.394a4.893,4.893,0,0,1-2.66.874c-1.748,0-2.394-.95-2.394-2.964V-17.328h4.37l.38-2.7h-4.75v-4.94l-3.5.418v4.522h-3.5v2.7h3.5V-5.244c0,3.724,2.014,5.7,5.4,5.7A7.634,7.634,0,0,0,30.3-.912Zm17.1-3.762v-9.158c0-4.18-2.2-6.65-7.03-6.65a19.606,19.606,0,0,0-6.916,1.368l.874,2.546a17.927,17.927,0,0,1,5.4-1.064c2.774,0,4.18,1.064,4.18,3.952V-12.2H40.831c-5.586,0-8.816,2.318-8.816,6.612,0,3.572,2.394,6.042,6.384,6.042a6.823,6.823,0,0,0,5.966-3c.608,1.976,1.9,2.774,3.914,3l.8-2.432C48.051-2.356,47.405-2.926,47.405-4.674ZM39.2-2.166c-2.28,0-3.458-1.254-3.458-3.61,0-2.736,1.862-4.1,5.548-4.1h2.622v4.6C42.769-3.192,41.249-2.166,39.2-2.166ZM63.289-20.482c-2.432,0-4.294,1.52-5.358,4.522l-.342-4.066h-3V0h3.5V-11.438c.836-3.838,2.28-5.624,4.788-5.624a6.281,6.281,0,0,1,1.748.228l.646-3.42A8.518,8.518,0,0,0,63.289-20.482ZM79.743-.912l-1.33-2.394a4.893,4.893,0,0,1-2.66.874c-1.748,0-2.394-.95-2.394-2.964V-17.328h4.37l.38-2.7h-4.75v-4.94l-3.5.418v4.522h-3.5v2.7h3.5V-5.244c0,3.724,2.014,5.7,5.4,5.7A7.634,7.634,0,0,0,79.743-.912Zm42.294-25.5h-6.726l-2.66,21.2-2.888-21.2h-7.372l-3.23,21.2L97-26.41H90L93.993,0h8.93l3.04-19.57L108.775,0h9.158ZM139.9-6.232V-13.6c0-4.864-2.584-7.334-8.74-7.334a22.028,22.028,0,0,0-7.79,1.558l1.482,4.37a18.415,18.415,0,0,1,5.282-1.064c2.318,0,3.154.608,3.154,2.812v.684h-1.748c-6.232,0-9.614,2.47-9.614,6.916,0,3.724,2.584,6.346,6.612,6.346a6.956,6.956,0,0,0,6.118-2.964c1.026,1.938,2.66,2.66,5.168,2.85l1.368-4.37C140.277-4.142,139.9-4.712,139.9-6.232Zm-9.31,2.166a1.965,1.965,0,0,1-2.014-2.242c0-1.786,1.14-2.66,3.572-2.66h1.14v3.306A3.213,3.213,0,0,1,130.587-4.066Zm24.624-1.14a4.009,4.009,0,0,1-2.052.57c-1.1,0-1.748-.608-1.748-2.508v-8.474h3.914l.684-4.636h-4.6v-5.092l-6.764.8v4.294h-2.622v4.636h2.622v8.55c0,5.054,2.242,7.752,7.03,7.752a10.62,10.62,0,0,0,5.776-1.672Zm12.16-15.732c-6.232,0-10.184,4.56-10.184,10.982,0,6.346,3.914,10.64,10.374,10.64a10.439,10.439,0,0,0,6.954-2.432L171.589-5.89A6.547,6.547,0,0,1,167.9-4.56c-2.166,0-3.686-1.14-3.686-5.434s1.368-5.814,3.762-5.814a5.623,5.623,0,0,1,3.686,1.406l2.85-3.952A10.226,10.226,0,0,0,167.371-20.938Zm21.546,0a7.392,7.392,0,0,0-5.776,2.7V-28.918l-6.764.684V0h6.764V-13.68c.988-1.52,1.976-2.318,3.04-2.318.912,0,1.52.494,1.52,2.356V0h6.764V-14.858C194.465-18.7,192.375-20.938,188.917-20.938ZM201.5-31.16a3.7,3.7,0,0,0-3.876,3.724,3.7,3.7,0,0,0,3.876,3.724,3.73,3.73,0,0,0,3.914-3.724A3.73,3.73,0,0,0,201.5-31.16Zm3.382,10.906h-6.764V0h6.764Zm16.454-.684a7.689,7.689,0,0,0-6.118,2.964l-.494-2.28h-5.928V0h6.764V-13.68C216.543-15.2,217.531-16,218.6-16c.912,0,1.52.494,1.52,2.356V0h6.764V-14.858C226.879-18.734,224.789-20.938,221.331-20.938Zm27.056-2.888a15.6,15.6,0,0,1-9.652,2.888c-5.51,0-9.2,2.774-9.2,7.524,0,2.584,1.026,4.408,3.724,5.852a4.813,4.813,0,0,0-2.508,3.952c0,2.2,1.862,4.028,6.536,4.028h2.888c1.824,0,2.508.8,2.508,1.748,0,1.026-.646,1.976-3.914,1.976-3.42,0-4.1-.608-4.1-2.242h-6.042c0,3.952,1.976,6.612,9.956,6.612,7.144,0,10.906-2.622,10.906-6.84,0-3.458-3.078-5.928-7.98-5.928h-2.964c-1.9,0-2.128-.608-2.128-1.1a1.17,1.17,0,0,1,.57-.95,10.5,10.5,0,0,0,2.242.19c5.4,0,8.74-2.85,8.74-6.726,0-2.7-1.254-4.18-3.876-5.244a15.308,15.308,0,0,0,5.814-.874Zm-9.462,7.3c1.824,0,2.7.874,2.7,2.888,0,2.128-.912,3.192-2.66,3.192-1.6,0-2.7-1.026-2.7-3.116C236.265-15.466,237.329-16.53,238.925-16.53Z" transform="translate(557 182)" fill="#fff"/>
    </g>
  </g>
</svg>
